<svg xmlns="http://www.w3.org/2000/svg" viewBox="0 0 16.45 14.93"><defs><style>.cls-1{fill:#b1b1b1;}</style></defs><title>Ресурс 5</title><g id="Слой_2" data-name="Слой 2"><g id="Слой_2-2" data-name="Слой 2"><path class="cls-1" d="M8.08,14.89l-.9-.82c-.84-.78-1.72-1.54-2.59-2.29S3,10.43,2.29,9.69A7.65,7.65,0,0,1,.44,7.05,7.22,7.22,0,0,1,0,4.84,5.73,5.73,0,0,1,.15,3.09,4,4,0,0,1,2.91.22,4.23,4.23,0,0,1,6.3.53,5.08,5.08,0,0,1,8.06,2.16l0,.07,0,0c.08.13.1.13.17,0l0,0a6.45,6.45,0,0,1,.86-1A3.82,3.82,0,0,1,9.51.94,4.76,4.76,0,0,1,10.92.2,4.22,4.22,0,0,1,13.23.14a4,4,0,0,1,3.13,3.28,5.93,5.93,0,0,1,0,1.88,6.32,6.32,0,0,1-.69,2.4,8.27,8.27,0,0,1-1.42,1.86c-.73.75-1.53,1.43-2.33,2.12s-1.69,1.47-2.52,2.23l-1.07,1A.28.28,0,0,1,8.08,14.89Z"/></g></g></svg>