<svg xmlns="http://www.w3.org/2000/svg" viewBox="0 0 72.77 57.05"><defs><style>.cls-1,.cls-4{fill:#ff2400;}.cls-2{fill:none;stroke:red;stroke-miterlimit:10;stroke-width:0.25px;}.cls-3{fill:#bc3b2a;}.cls-4{font-size:12.52px;font-family:mr_DopestyleG;}</style></defs><title>Ресурс 1</title><g id="Слой_2" data-name="Слой 2"><g id="Слой_10" data-name="Слой 10"><path class="cls-1" d="M70.36,9.58,72.64,39.5s-10.4-1.65-14.45-1.91C54.34,37.35,41.71,37,41.71,37s-1.14,1.9-4.82,2a6.41,6.41,0,0,1-5.32-2s-11.91.51-13.69.51S.14,39.5.14,39.5L2.55,9.58l2,.37L1.72,37a48.06,48.06,0,0,1,13.44-2.28A160.75,160.75,0,0,1,36.07,36c1.77.25,3.55-2,22.81-1.27,0,0,10.65,1.27,12.43,2.28L68.46,10Z"/><path class="cls-2" d="M4.59,10l-2-.37L.14,39.5s16-2,17.74-2S31.57,37,31.57,37a6.41,6.41,0,0,0,5.32,2c3.68-.13,4.82-2,4.82-2s12.63.39,16.48.63c4.05.26,14.45,1.91,14.45,1.91L70.36,9.58l-1.9.43"/><path class="cls-2" d="M8.57,6l-1.4.63-2.28,25s8.37-1.26,13.18-.76,15.47,3.05,16.48,4.06"/><path class="cls-2" d="M3.61,19.25,2.55,34.81a42.07,42.07,0,0,1,14.57-2,119.25,119.25,0,0,1,17,2.41"/><path class="cls-2" d="M64.4,5.91l1.39.63L68.07,32s-4.69-2.16-13.43-1.27a66.88,66.88,0,0,0-16.48,4.06"/><path class="cls-2" d="M69.43,19.25l.8,15.56S62,32,54.39,32.52a90.33,90.33,0,0,0-15.47,2.67"/><path class="cls-2" d="M61.48,3l2.66.89L66.43,29s-8.37-2-11.92-1.15-10.39,1.91-16.6,7"/><path class="cls-2" d="M11.16,3.5l-2.4.63L6.47,29s8.24-2.16,13.82-.64S33.55,33.16,35,34.81"/><path class="cls-3" d="M36.51,35.69c.76-2,2.88-.29,2.92-.26-1.51.29-2.28.55-2.89.59l0-.33Z"/><path class="cls-3" d="M36.51,35.69l0,.33a1.83,1.83,0,0,1-.47,0c-.4-.06-1.3-.17-2.53-.3a1.73,1.73,0,0,1,2-.9c1.21.24,1,.83,1,.88Z"/><path class="cls-2" d="M36.51,35.69h0s.2-.64-1-.88a1.73,1.73,0,0,0-2,.9"/><path class="cls-2" d="M39.43,35.43h0s-2.16-1.74-2.92.26"/><path class="cls-2" d="M6.79,8.76l-2.15.76,0,.43L1.72,37a48.06,48.06,0,0,1,13.44-2.28,152.37,152.37,0,0,1,18.38,1c1.23.13,2.13.24,2.53.3a1.83,1.83,0,0,0,.47,0c.61,0,1.38-.3,2.89-.59,2.77-.52,8-1.14,19.45-.69,0,0,10.65,1.27,12.43,2.28L68.46,10l-.07-.62-2.28-.63"/><path class="cls-2" d="M36.51,35.69,36.39,8.32S41.33,2.1,47.54,1,60.85.2,61.23.58s2.41,25.73,2.41,25.73S57.93,24,49.7,26.57a25.74,25.74,0,0,0-12.43,8.24"/><path class="cls-2" d="M36.39,8.32s-4.57-6.6-12-7.61S12.05.2,11.54.71s-2.4,25.6-2.4,25.6a26.58,26.58,0,0,1,12.67,0c6.21,1.78,13.06,7.23,13.69,8.5"/><text class="cls-4" transform="translate(4.25 50.09)">Scarlet Book</text></g></g></svg>